<svg xmlns="http://www.w3.org/2000/svg" xmlns:xlink="http://www.w3.org/1999/xlink" width="377" zoomAndPan="magnify" viewBox="0 0 283.5 283.500005" height="377" preserveAspectRatio="xMidYMid meet" version="1.0"><defs><clipPath id="0b51acdd4f"><path d="M 97 85 L 186 85 L 186 197.941406 L 97 197.941406 Z M 97 85 " clip-rule="nonzero"/></clipPath></defs><g clip-path="url(#0b51acdd4f)"><path fill="#c1ff72" d="M 185.179688 135.894531 C 184.550781 140.359375 182.390625 146.644531 182.390625 146.644531 C 182.390625 146.644531 180.9375 141.761719 179.203125 138.417969 C 177.316406 134.769531 174.886719 132.53125 173.496094 131.25 C 163.476562 122.019531 148.804688 123.074219 147.882812 123.152344 C 145.472656 123.359375 143.757812 123.765625 142.398438 124.1875 L 143.996094 132.035156 C 144.4375 134.203125 142.367188 136.03125 140.269531 135.332031 L 118.929688 128.1875 L 100.828125 122.125 C 97.296875 120.941406 96.367188 116.375 99.160156 113.90625 L 113.460938 101.261719 L 130.316406 86.351562 C 131.972656 84.886719 134.59375 85.765625 135.035156 87.929688 L 136.855469 96.882812 C 139.5 97.179688 142.546875 97.65625 146.027344 98.199219 C 152.050781 99.144531 157.183594 99.949219 163.417969 102.980469 C 168.132812 105.273438 179.613281 110.855469 183.722656 122.886719 C 184.320312 124.644531 186.050781 129.714844 185.179688 135.894531 Z M 99.226562 160.164062 C 103.359375 172.1875 114.851562 177.746094 119.574219 180.03125 C 125.8125 183.050781 130.945312 183.84375 136.972656 184.773438 C 140.449219 185.3125 143.5 185.78125 146.144531 186.074219 L 147.984375 195.019531 C 148.429688 197.1875 151.050781 198.054688 152.703125 196.589844 L 169.53125 181.648438 L 183.804688 168.972656 C 186.59375 166.496094 185.65625 161.929688 182.117188 160.757812 L 164.003906 154.730469 L 142.648438 147.628906 C 140.550781 146.933594 138.484375 148.769531 138.929688 150.929688 L 140.539062 158.777344 C 139.183594 159.199219 137.46875 159.613281 135.058594 159.824219 C 134.136719 159.90625 119.464844 160.992188 109.425781 151.777344 C 108.03125 150.503906 105.597656 148.265625 103.703125 144.621094 C 101.960938 141.277344 100.5 136.402344 100.5 136.398438 C 100.5 136.398438 98.351562 142.6875 97.734375 147.15625 C 96.886719 153.34375 98.625 158.410156 99.226562 160.164062 Z M 99.226562 160.164062 " fill-opacity="1" fill-rule="nonzero"/></g></svg>